<svg width="12" height="8" viewBox="0 0 12 8" fill="none" xmlns="http://www.w3.org/2000/svg">
<path d="M2.4578 0.742371C3.4989 0.742371 4.224 1.40521 4.224 2.37021C4.224 3.33864 3.48402 4.00492 2.43177 4.00492H1.2791V5.69816H0.446289V0.742371H2.4578ZM1.2791 3.35925H2.23465C2.9599 3.35925 3.37244 2.9987 3.37244 2.37365C3.37244 1.74872 2.95975 1.39147 2.23837 1.39147H1.2791V3.35925ZM4.43056 4.6712C4.43056 4.03584 4.95482 3.67185 5.92153 3.61689L6.9589 3.55849V3.28368C6.9589 2.88204 6.67266 2.66219 6.16327 2.66219C5.743 2.66219 5.43803 2.8613 5.37509 3.16689H4.62381C4.64627 2.52479 5.30056 2.05775 6.18559 2.05775C7.13742 2.05775 7.75838 2.51792 7.75838 3.23229V5.69803H6.9888V5.10389H6.9702C6.75077 5.49192 6.26727 5.73568 5.74301 5.73568C4.9697 5.73568 4.43056 5.30999 4.43056 4.6712ZM6.9589 4.35186V4.07362L6.0331 4.12858C5.51241 4.1595 5.2412 4.33799 5.2412 4.65045C5.2412 4.95274 5.52372 5.14854 5.96616 5.14854C6.53119 5.14854 6.9589 4.81534 6.9589 4.35186ZM8.46603 7.02358V6.42957C8.5181 6.43631 8.64441 6.44318 8.71136 6.44318C9.07942 6.44318 9.28769 6.29917 9.41414 5.92804L9.48853 5.70833L8.07924 2.1024H8.94924L9.93097 5.02831H9.94956L10.9311 2.1024H11.779L10.3176 5.89026C9.9829 6.75921 9.59996 7.04432 8.78946 7.04432C8.72623 7.04432 8.52168 7.03745 8.46603 7.02358Z" fill="black"/>
</svg>
